<svg width="12" height="20" viewBox="0 0 12 20" fill="none" xmlns="http://www.w3.org/2000/svg">
<path d="M2.87518 0.900097L11.3002 9.3001C11.4002 9.4001 11.4712 9.50843 11.5132 9.6251C11.5552 9.74176 11.5758 9.86676 11.5752 10.0001C11.5752 10.1334 11.5542 10.2584 11.5122 10.3751C11.4702 10.4918 11.3995 10.6001 11.3002 10.7001L2.87518 19.1251C2.64185 19.3584 2.35018 19.4751 2.00018 19.4751C1.65018 19.4751 1.35018 19.3501 1.10018 19.1001C0.85018 18.8501 0.72518 18.5584 0.72518 18.2251C0.72518 17.8918 0.85018 17.6001 1.10018 17.3501L8.45018 10.0001L1.10018 2.6501C0.866846 2.41676 0.750179 2.1291 0.750179 1.7871C0.750179 1.4451 0.875179 1.14943 1.12518 0.900097C1.37518 0.650097 1.66685 0.525097 2.00018 0.525097C2.33351 0.525097 2.62518 0.650097 2.87518 0.900097Z" fill="#8758FB"/>
</svg>
